<?xml version="1.0" encoding="utf-8"?>
<!-- Generator: Adobe Illustrator 16.0.3, SVG Export Plug-In . SVG Version: 6.00 Build 0)  -->
<!DOCTYPE svg PUBLIC "-//W3C//DTD SVG 1.1//EN" "http://www.w3.org/Graphics/SVG/1.1/DTD/svg11.dtd">
<svg version="1.1" id="Layer_1" xmlns="http://www.w3.org/2000/svg" xmlns:xlink="http://www.w3.org/1999/xlink" x="0px" y="0px"
	 width="612px" height="792px" viewBox="0 0 612 792" enable-background="new 0 0 612 792" xml:space="preserve">
<g>
	<path fill-rule="evenodd" clip-rule="evenodd" fill="#FCFCFC" d="M126.24,523.84c0-84.84,0.001-169.68-0.022-254.52
		c0-0.899,0.202-1.102,1.102-1.102c119.28,0.023,238.56,0.023,357.84,0c0.899,0,1.103,0.202,1.103,1.102
		c-0.024,84.48-0.024,168.96,0,253.44c0,0.899-0.203,1.103-1.103,1.103C365.52,523.839,245.88,523.84,126.24,523.84z"/>
	<path fill-rule="evenodd" clip-rule="evenodd" fill="#4BCAD5" d="M205.189,414.063c0-4.199,0.033-8.398-0.024-12.597
		c-0.014-1.018,0.306-1.278,1.283-1.262c3.118,0.056,6.239,0.078,9.357,0.007c7.153-0.164,13.017-2.967,17.105-8.921
		c3.383-4.927,4.314-10.47,3.396-16.344c-0.801-5.123-3.034-9.464-7.179-12.668c-4.667-3.605-10.031-4.795-15.795-4.015
		c-7.094,0.959-12.581,4.499-16.2,10.744c-1.817,3.135-2.659,6.563-2.698,10.176c-0.034,3.119-0.03,6.239,0.011,9.357
		c0.011,0.827-0.232,1.097-1.08,1.094c-8.438-0.028-16.875-0.028-25.313-0.003c-0.842,0.003-1.091-0.254-1.082-1.095
		c0.046-4.079-0.103-8.163,0.067-12.235c0.362-8.688,3.085-16.658,7.899-23.873c6.131-9.188,14.479-15.591,24.905-19.227
		c7.761-2.706,15.739-3.236,23.86-2.158c9.172,1.218,17.333,4.756,24.355,10.759c5.674,4.85,9.854,10.829,12.571,17.791
		c2.179,5.584,3.286,11.372,3.468,17.385c0.456,15.137-4.906,27.828-15.888,38.137c-6.111,5.737-13.39,9.436-21.522,11.422
		c-4.251,1.037-8.597,1.273-12.958,1.287c-2.319,0.008-4.639,0.004-6.958,0.002c-1.583-0.002-1.582-0.004-1.582-1.528
		C205.189,422.221,205.189,418.142,205.189,414.063z"/>
	<path fill-rule="evenodd" clip-rule="evenodd" fill="#4BCAD5" d="M195.377,430.447c0,9.96-0.014,19.92,0.021,29.879
		c0.004,1.009-0.189,1.367-1.298,1.358c-6.959-0.057-13.919-0.022-20.879-0.035c-4.036-0.007-7.111-3.086-7.116-7.116
		c-0.01-8.199-0.024-16.399,0.015-24.599c0.005-1.063-0.225-1.413-1.364-1.405c-8.239,0.051-16.479,0.03-24.719,0.02
		c-4.064-0.005-6.972-3.179-6.926-7.219c0.081-6.997,0.031-13.997-0.038-20.996c-0.01-1.062,0.468-1.053,1.225-1.052
		c15.119,0.01,30.239,0.007,45.358,0.007c4.8,0,9.601,0.046,14.399-0.03c1.185-0.02,1.343,0.409,1.34,1.431
		C195.364,410.608,195.376,420.528,195.377,430.447z"/>
	<path fill-rule="evenodd" clip-rule="evenodd" d="M308.169,420.482c0.001-6.478,0.004-12.955-0.004-19.432
		c0-0.567,0.043-1.077,0.42-1.566c6.308-8.192,20.292-11.942,29.742-4.207c6.02,4.927,8.33,13.736,5.594,21.468
		c-2.509,7.085-9.38,11.789-17.248,11.806c-1.839,0.004-3.679-0.027-5.517,0.016c-0.702,0.017-0.991-0.13-0.963-0.911
		c0.062-1.717,0.058-3.439,0.001-5.156c-0.024-0.736,0.173-0.951,0.921-0.941c2.117,0.028,4.26,0.162,6.348-0.1
		c6.24-0.783,9.777-6.298,9.372-12.192c-0.315-4.58-2.39-8.07-6.813-9.845c-4.169-1.672-9.65-0.425-12.742,2.814
		c-0.64,0.67-0.946,1.369-0.944,2.335c0.032,12.194,0.008,24.39,0.045,36.584c0.003,1.014-0.166,1.411-1.278,1.329
		c-1.511-0.112-3.036-0.021-4.556-0.028c-1.685-0.007-2.376-0.707-2.377-2.423C308.165,433.517,308.168,426.999,308.169,420.482z"/>
	<path fill-rule="evenodd" clip-rule="evenodd" d="M456.186,375.03c0,10.945,0,21.722,0,32.827c1.85-2.181,3.511-4.135,5.167-6.092
		c2.634-3.112,5.263-6.229,7.902-9.337c0.247-0.292,0.435-0.691,0.917-0.69c3.019,0.001,6.038,0.001,9.322,0.001
		c-2.808,3.194-5.434,6.18-8.059,9.167c-2.189,2.492-4.341,5.02-6.591,7.456c-0.641,0.693-0.484,1.026,0.049,1.626
		c5.291,5.939,10.554,11.904,15.823,17.863c0.151,0.172,0.296,0.349,0.593,0.699c-3.362,0-6.535,0-9.708,0.001
		c-0.544,0-0.698-0.485-0.964-0.804c-4.6-5.533-9.188-11.076-13.781-16.615c-0.146-0.177-0.298-0.349-0.589-0.688
		c-0.027,0.597-0.062,1.01-0.062,1.423c-0.004,5.199-0.027,10.399,0.021,15.598c0.009,0.922-0.252,1.153-1.138,1.11
		c-1.557-0.074-3.119-0.017-4.679-0.021c-1.703-0.005-2.395-0.678-2.397-2.393c-0.009-7.24-0.004-14.479-0.004-21.719
		c0-8.039,0.02-16.078-0.026-24.117c-0.006-0.954,0.297-1.41,1.136-1.801C451.457,377.432,453.749,376.243,456.186,375.03z"/>
	<path fill-rule="evenodd" clip-rule="evenodd" d="M405.824,412.981c0-4.358,0.002-8.718-0.003-13.077
		c0-0.521,0.034-0.98,0.387-1.446c5.557-7.354,18.797-11.266,27.837-3.815c4.218,3.477,6.18,8.084,6.259,13.462
		c0.096,6.478,0.006,12.957,0.047,19.436c0.005,0.889-0.301,1.051-1.096,1.03c-1.918-0.052-3.844-0.104-5.756,0.015
		c-1.151,0.071-1.271-0.373-1.264-1.347c0.04-6.238,0.039-12.478,0.014-18.717c-0.02-4.829-2.799-8.787-7.054-9.854
		c-4.035-1.012-7.575,0.065-10.585,2.936c-0.506,0.482-0.651,1.021-0.65,1.702c0.019,7.959-0.02,15.918,0.045,23.876
		c0.01,1.211-0.346,1.474-1.461,1.396c-1.433-0.1-2.878-0.021-4.317-0.025c-1.723-0.007-2.399-0.671-2.4-2.372
		C405.821,421.78,405.824,417.381,405.824,412.981z"/>
	<path fill-rule="evenodd" clip-rule="evenodd" d="M289.751,380.549c0,3.39,0.053,6.62-0.029,9.848
		c-0.029,1.126,0.311,1.395,1.393,1.363c2.717-0.078,5.439,0.007,8.157-0.044c0.811-0.016,1.002,0.24,0.978,1.01
		c-0.056,1.758-0.063,3.521,0.003,5.278c0.032,0.825-0.261,0.997-1.021,0.986c-2.799-0.04-5.599,0.01-8.398-0.033
		c-0.789-0.012-1.111,0.136-1.105,1.028c0.042,5.559,0,11.118,0.031,16.677c0.02,3.515,1.481,4.91,5.02,4.915
		c2.56,0.003,5.12,0.031,7.678-0.019c0.747-0.015,0.944,0.186,0.92,0.926c-0.058,1.758-0.016,3.52-0.021,5.278
		c-0.001,0.379,0.129,0.816-0.545,0.798c-4.193-0.113-8.414,0.352-12.579-0.22c-5.59-0.767-8.646-4.37-8.666-9.982
		c-0.038-10.958-0.012-21.916-0.01-32.874c0-0.385-0.115-0.815,0.354-1.048C284.477,383.165,287.042,381.892,289.751,380.549z"/>
	<path fill-rule="evenodd" clip-rule="evenodd" d="M381.165,375.051c0,0.591,0,0.989,0,1.386c0,16.877-0.017,33.754,0.033,50.63
		c0.004,1.29-0.367,1.607-1.574,1.51c-1.351-0.107-2.717-0.022-4.077-0.027c-1.873-0.006-2.518-0.646-2.519-2.518
		c-0.002-13.678-0.001-27.354-0.001-41.032c0-1.68,0.01-3.359-0.007-5.039c-0.004-0.505,0.039-0.879,0.597-1.148
		C376.09,377.62,378.535,376.369,381.165,375.051z"/>
	<path fill-rule="evenodd" clip-rule="evenodd" d="M397.574,410.23c-0.001,5.755-0.016,11.509,0.017,17.263
		c0.005,0.812-0.17,1.119-1.042,1.081c-1.636-0.072-3.276-0.013-4.914-0.024c-1.423-0.01-2.186-0.708-2.187-2.101
		c-0.014-11.309-0.003-22.617-0.021-33.925c-0.001-0.641,0.201-0.81,0.816-0.8c2.118,0.032,4.236,0.047,6.354-0.008
		c0.802-0.021,1.001,0.227,0.996,1.014C397.56,398.563,397.575,404.397,397.574,410.23z"/>
	<path fill-rule="evenodd" clip-rule="evenodd" d="M350.856,405.975c4.922,0,9.636,0.008,14.349-0.011
		c0.555-0.002,0.656,0.229,0.653,0.712c-0.017,2.277-0.021,4.557,0.003,6.834c0.006,0.545-0.21,0.663-0.705,0.66
		c-3.238-0.016-6.476-0.011-9.713-0.002c-0.384,0.001-0.656-0.047-0.851-0.458C353.399,411.193,352.174,408.692,350.856,405.975z"/>
	<path fill-rule="evenodd" clip-rule="evenodd" d="M393.528,383.215c-1.039,0-2.086-0.071-3.118,0.021
		c-0.899,0.08-1.394-0.307-1.802-1.03c-1.226-2.174-0.65-5.053,1.368-6.708c2.033-1.666,5.248-1.614,7.188,0.114
		c1.979,1.762,2.447,4.603,1.131,6.741c-0.358,0.583-0.763,0.935-1.528,0.881C395.692,383.159,394.608,383.216,393.528,383.215z"/>
</g>
</svg>
